<svg width="800" height="120" viewBox="0 0 800 120" fill="none" xmlns="http://www.w3.org/2000/svg">
<path d="M248.245 118.755C237.624 118.755 227.75 116.1 218.623 110.788C209.495 105.477 202.276 98.3402 196.966 89.3776C191.655 80.249 189 70.4564 189 60C189 49.5436 191.655 39.834 196.966 30.8714C202.276 21.7427 209.495 14.5228 218.623 9.21162C227.75 3.90041 237.624 1.24481 248.245 1.24481C259.032 1.24481 269.238 4.14938 278.863 9.9585C288.489 15.6017 295.21 22.9876 299.027 32.1162V3.9834H306.992V116.017H299.027V88.1328C294.546 97.4274 287.576 104.896 278.117 110.539C268.823 116.017 258.866 118.755 248.245 118.755ZM248.743 111.784C257.87 111.784 266.334 109.461 274.134 104.813C281.933 100 288.074 93.6929 292.554 85.8921C297.201 77.9253 299.524 69.2946 299.524 60C299.524 50.8714 297.201 42.3237 292.554 34.3568C287.908 26.39 281.685 20.083 273.885 15.4357C266.085 10.6224 257.621 8.21577 248.494 8.21577C239.367 8.21577 230.82 10.6224 222.854 15.4357C215.055 20.249 208.748 26.639 203.936 34.6058C199.289 42.5726 196.966 51.1203 196.966 60.249C196.966 69.3776 199.289 77.9253 203.936 85.8921C208.748 93.6929 215.138 100 223.103 104.813C231.069 109.461 239.616 111.784 248.743 111.784Z" fill="#4C2A67"/>
<path d="M338.412 3.9834H346.378V28.8797C350.029 20.5809 356.252 13.9419 365.047 8.96266C373.843 3.81743 383.551 1.24481 394.172 1.24481C407.946 1.24481 418.816 5.64315 426.782 14.4398C434.913 23.0705 438.979 35.1867 438.979 50.7884V116.017H431.013V50.7884C431.013 37.3444 427.694 26.888 421.056 19.4191C414.584 11.9502 405.457 8.21577 393.674 8.21577C385.045 8.21577 377.079 10.2075 369.777 14.1909C362.641 18.0083 356.916 23.3195 352.601 30.1245C348.452 36.9295 346.378 44.6473 346.378 53.278V116.017H338.412V3.9834Z" fill="#4C2A67"/>
<path d="M524.928 112.033C533.557 112.033 541.772 109.793 549.572 105.311C557.371 100.83 563.844 94.6888 568.988 86.888V99.5851C562.848 106.39 556.127 111.369 548.825 114.523C541.523 117.51 533.225 119.004 523.932 119.004C513.643 119.004 503.935 116.266 494.807 110.788C485.846 105.311 478.627 98.0083 473.15 88.8797C467.84 79.751 465.185 70.0415 465.185 59.751C465.185 48.6307 467.84 38.6722 473.15 29.8755C478.461 20.9129 485.68 13.9419 494.807 8.96266C504.101 3.98341 514.39 1.49378 525.674 1.49378C542.934 1.49378 557.62 8.29876 569.735 21.9087L491.571 99.0871C497.048 103.568 502.358 106.888 507.503 109.046C512.647 111.037 518.456 112.033 524.928 112.033ZM473.15 59.0041C473.15 72.7801 477.714 84.5643 486.842 94.3568L559.778 21.9087C554.301 17.0954 548.991 13.6929 543.846 11.7012C538.702 9.54357 532.561 8.46473 525.426 8.46473C515.302 8.46473 506.258 10.7054 498.292 15.1867C490.493 19.5021 484.352 25.4772 479.872 33.112C475.391 40.7469 473.15 49.3776 473.15 59.0041Z" fill="#4C2A67"/>
<path d="M668.682 116.017L627.858 54.5228L587.531 116.017H579.566L623.128 49.7925L592.759 3.9834H601.969L627.609 42.8216L653 3.9834H660.965L632.339 47.5519L677.893 116.017H668.682Z" fill="#4C2A67"/>
<path d="M741.253 120C729.968 120 719.762 117.261 710.635 111.784C701.507 106.141 694.371 98.7552 689.227 89.6266C684.082 80.3319 681.51 70.2905 681.51 59.5021C681.51 48.8797 684.082 39.0041 689.227 29.8755C694.537 20.7469 701.673 13.527 710.635 8.21577C719.762 2.73859 729.885 0 741.004 0C751.957 0 761.914 2.73859 770.875 8.21577C780.003 13.527 787.139 20.7469 792.283 29.8755C797.428 39.0041 800 48.8797 800 59.5021C800 70.6224 797.511 80.8299 792.532 90.1245C787.554 99.2531 780.584 106.556 771.622 112.033C762.827 117.344 752.704 120 741.253 120ZM741.253 113.029C750.712 113.029 759.342 110.622 767.141 105.809C774.941 100.996 780.998 94.6058 785.313 86.639C789.794 78.5062 792.034 69.6266 792.034 60C792.034 50.5394 789.794 41.7427 785.313 33.61C780.832 25.4772 774.692 19.0041 766.892 14.1909C759.093 9.37759 750.463 6.97095 741.004 6.97095C731.545 6.97095 722.832 9.46058 714.866 14.4398C707.067 19.2531 700.843 25.7261 696.197 33.8589C691.716 41.9917 689.476 50.7884 689.476 60.249C689.476 69.7095 691.716 78.5062 696.197 86.639C700.843 94.6058 707.067 100.996 714.866 105.809C722.832 110.622 731.628 113.029 741.253 113.029Z" fill="#4C2A67"/>
<path d="M63.6193 2.9836C65.7523 -0.699617 71.0847 -0.69961 73.2176 2.98361L136.086 111.547C138.219 115.23 135.553 119.834 131.287 119.834H5.54982C1.28393 119.834 -1.38225 115.23 0.750697 111.547L63.6193 2.9836Z" fill="#4C2A67"/>
<path d="M83.1256 2.76752C85.2586 -0.922513 90.5909 -0.922505 92.7239 2.76753L155.593 111.531C157.725 115.221 155.059 119.834 150.793 119.834H25.0561C20.7902 119.834 18.124 115.221 20.257 111.531L83.1256 2.76752Z" fill="#9C708E"/>
<path d="M102.632 2.76752C104.765 -0.922513 110.097 -0.922505 112.23 2.76753L175.099 111.531C177.232 115.221 174.566 119.834 170.3 119.834H44.5624C40.2965 119.834 37.6304 115.221 39.7633 111.531L102.632 2.76752Z" fill="#D9BEAD"/>
</svg>
